<svg xmlns="http://www.w3.org/2000/svg" xmlns:xlink="http://www.w3.org/1999/xlink" height="256" width="256"><g stroke="black"><line x1="108.8" y1="192.0" x2="115.2" y2="192.0"></line><line x1="108.8" y1="243.2" x2="108.8" y2="192.0"></line><line x1="147.2" y1="243.2" x2="108.8" y2="243.2"></line><line x1="147.2" y1="192.0" x2="147.2" y2="243.2"></line><line x1="140.8" y1="192.0" x2="147.2" y2="192.0"></line><line x1="115.2" y1="179.2" x2="115.2" y2="192.0"></line><line x1="140.8" y1="179.2" x2="140.8" y2="192.0"></line><line x1="51.2" y1="166.4" x2="115.2" y2="179.2"></line><line x1="51.2" y1="140.8" x2="51.2" y2="166.4"></line><line x1="102.4" y1="153.6" x2="51.2" y2="140.8"></line><line x1="204.8" y1="192.0" x2="140.8" y2="179.2"></line><line x1="204.8" y1="166.4" x2="204.8" y2="192.0"></line><line x1="153.6" y1="153.6" x2="204.8" y2="166.4"></line><line x1="102.4" y1="102.4" x2="102.4" y2="153.6"></line><line x1="153.6" y1="102.4" x2="153.6" y2="153.6"></line><line x1="76.8" y1="0.0" x2="102.4" y2="102.4"></line><line x1="102.4" y1="0.0" x2="128.0" y2="76.8"></line><line x1="153.6" y1="0.0" x2="128.0" y2="76.8"></line><line x1="179.2" y1="0.0" x2="153.6" y2="102.4"></line></g></svg>