<svg xmlns="http://www.w3.org/2000/svg" xmlns:xlink="http://www.w3.org/1999/xlink" height="256" width="256"><g stroke="black"><line x1="192.0" y1="147.2" x2="192.0" y2="140.8"></line><line x1="243.2" y1="147.2" x2="192.0" y2="147.2"></line><line x1="243.2" y1="108.8" x2="243.2" y2="147.2"></line><line x1="192.0" y1="108.8" x2="243.2" y2="108.8"></line><line x1="192.0" y1="115.2" x2="192.0" y2="108.8"></line><line x1="179.2" y1="140.8" x2="192.0" y2="140.8"></line><line x1="179.2" y1="115.2" x2="192.0" y2="115.2"></line><line x1="166.4" y1="204.8" x2="179.2" y2="140.8"></line><line x1="140.8" y1="204.8" x2="166.4" y2="204.8"></line><line x1="153.6" y1="153.6" x2="140.8" y2="204.8"></line><line x1="192.0" y1="51.2" x2="179.2" y2="115.2"></line><line x1="166.4" y1="51.2" x2="192.0" y2="51.2"></line><line x1="153.6" y1="102.4" x2="166.4" y2="51.2"></line><line x1="102.4" y1="153.6" x2="153.6" y2="153.6"></line><line x1="102.4" y1="102.4" x2="153.6" y2="102.4"></line><line x1="0.0" y1="179.2" x2="102.4" y2="153.6"></line><line x1="0.0" y1="153.6" x2="76.8" y2="128.0"></line><line x1="0.0" y1="102.4" x2="76.8" y2="128.0"></line><line x1="0.0" y1="76.8" x2="102.4" y2="102.4"></line></g></svg>